<?xml version="1.0" encoding="iso-8859-1"?>
<!-- Generator: Adobe Illustrator 16.0.0, SVG Export Plug-In . SVG Version: 6.00 Build 0)  -->
<!DOCTYPE svg PUBLIC "-//W3C//DTD SVG 1.1//EN" "http://www.w3.org/Graphics/SVG/1.1/DTD/svg11.dtd">
<svg version="1.1" id="Capa_1" xmlns="http://www.w3.org/2000/svg" xmlns:xlink="http://www.w3.org/1999/xlink" x="0px" y="0px"
	 width="32px" height="32px" viewBox="0 0 32 32" style="enable-background:new 0 0 32 32;" xml:space="preserve">
<g>
	<path fill="#5F4B8B" d="M32,24.378c-3.691,1.902-8.469-1.352-8.469-1.352s8.469,1.944,7.516-4.405c-1.587,4.842-7.104,2.421-7.104,2.421
		s8.295-0.278,5.795-8.654c0.197,5.916-5.479,6.749-5.479,6.749s-0.562-2.362,0.755-4.445c1.315-2.083,3.217-4.485,2.422-5.994
		c-0.793-1.509-1.326-1.816-1.326-1.816s0.93-4.892-5.303-3.502c-0.992,0.517,4.437,1.779,3.166,4.042
		c-0.396,1.111-3.723-1.66-3.723-1.66s1.548,4.167,3.098,4.445c1.547,0.278,1.191,2.176,0.873,2.699
		c-0.172,0.278-0.527,0.862-0.826,1.352c-0.444-2.535-2.201-3.946-4.987-4.654c0.834-0.188,1.458-0.93,1.458-1.817
		c0-1.029-0.838-1.865-1.866-1.865c-0.856,0-1.574,0.584-1.791,1.373c-0.217-0.789-0.934-1.373-1.791-1.373
		c-1.028,0-1.865,0.836-1.865,1.865c0,0.737,0.433,1.369,1.053,1.672c-2.501,0.743-3.957,2.879-4.48,4.798
		c-0.056,0.206-0.082,0.435-0.116,0.657c-0.238-0.389-0.96-1.571-1.228-2.007c-0.321-0.526-0.676-2.423,0.872-2.701
		c1.548-0.278,3.096-4.445,3.096-4.445S8.425,8.531,8.028,7.42c-1.271-2.263,4.157-3.525,3.165-4.042
		C4.962,1.988,5.891,6.88,5.891,6.88S5.358,7.188,4.564,8.696c-0.794,1.508,1.105,3.911,2.422,5.994
		c1.315,2.083,0.754,4.445,0.754,4.445s-5.676-0.833-5.478-6.749c-2.501,8.375,5.795,8.654,5.795,8.654s-5.518,2.421-7.104-2.421
		C0,24.972,8.469,23.025,8.469,23.025S3.692,26.279,0,24.378c2.62,4.565,9.923-0.485,9.923-0.485s-1.959,3.896-6.881,3.977
		c4.168,3.85,9.37-4.678,10.269-4.19c1.993,0.906,4.175,0.85,5.683,0.21c0.01-0.001,0.014,0.007,0.023,0.006
		c1.315-0.065,4.607,7.768,9.857,3.852c-5.834-0.015-6.799-3.852-6.799-3.852S29.38,28.942,32,24.378z M17.998,7.188
		c0.329,0,0.596,0.268,0.596,0.595c0,0.328-0.267,0.596-0.596,0.596c-0.328,0-0.596-0.268-0.596-0.596
		C17.402,7.457,17.67,7.188,17.998,7.188z M14.416,7.188c0.329,0,0.596,0.268,0.596,0.595c0,0.328-0.267,0.596-0.596,0.596
		S13.82,8.111,13.82,7.783C13.82,7.457,14.087,7.188,14.416,7.188z M16.768,9.273c-0.396-0.061-0.771-0.081-1.137-0.085
		c0.274-0.237,0.477-0.552,0.576-0.912c0.115,0.42,0.371,0.782,0.717,1.027C16.869,9.296,16.823,9.281,16.768,9.273z"/>
</g>
<g>
</g>
<g>
</g>
<g>
</g>
<g>
</g>
<g>
</g>
<g>
</g>
<g>
</g>
<g>
</g>
<g>
</g>
<g>
</g>
<g>
</g>
<g>
</g>
<g>
</g>
<g>
</g>
<g>
</g>
</svg>
