<?xml version="1.0" encoding="iso-8859-1"?>
<!-- Generator: Adobe Illustrator 16.0.0, SVG Export Plug-In . SVG Version: 6.00 Build 0)  -->
<!DOCTYPE svg PUBLIC "-//W3C//DTD SVG 1.1//EN" "http://www.w3.org/Graphics/SVG/1.1/DTD/svg11.dtd">
<svg version="1.1" id="Capa_1" xmlns="http://www.w3.org/2000/svg" xmlns:xlink="http://www.w3.org/1999/xlink" x="0px" y="0px"
	 width="31.719px" height="31.719px" viewBox="0 0 31.719 31.719" style="enable-background:new 0 0 31.719 31.719;"
	 xml:space="preserve">
<g>
	<path fill="#5F4B8B" d="M31.719,15.485l-2.341-1.193v0.907h-0.91C28.41,3.423,15.143,2.491,15.143,2.491l-1.594-2.354l-1.092,0.537l2.092,3.015
		l-3.232,5.229c-0.148-0.015-0.293-0.039-0.446-0.039c-2.252,0-4.078,1.63-4.078,3.641c0,1.14,0.599,2.145,1.517,2.812
		C7.332,15.709,0,18.68,0,18.68v2.062l4.638,0.683c0,0,1.524,4.044,1.047,6.002s-4.302,2.731-4.302,2.731l0.002,1.424
		c0,0,8.312,0,9.458,0s2.209-2.59,1.146-5.016c0.321-0.609,0.638-1.293,0.952-1.984l1.788,3.143
		c-0.597,0.821-1.833,2.521-1.833,2.521l0.765,1.146l1.672-2.483c0,0,12.753-0.812,13.136-13.134h0.908v0.906L31.719,15.485z
		 M15.503,3.781c2.647,0.252,10.083,1.823,10.833,11.418l-12.777,0.038c0.846-0.667,1.39-1.632,1.39-2.719
		c0-1.587-1.145-2.923-2.731-3.421L15.503,3.781z M15.595,26.992l-2.083-3.694c0.757-1.613,0.813-3.265,0.813-3.265l10.944-1.351
		c0,0,0.271,0.308,0.906,0.382C24.742,26.845,16.711,27.342,15.595,26.992z M23.932,17.681l-11.505-0.739l-0.168-1.014
		c0.049-0.018,0.103-0.024,0.151-0.042l13.964-0.114c0.017,0.348,0.024,0.688,0.021,1.016
		C25.468,17.019,23.932,17.681,23.932,17.681z"/>
</g>
<g>
</g>
<g>
</g>
<g>
</g>
<g>
</g>
<g>
</g>
<g>
</g>
<g>
</g>
<g>
</g>
<g>
</g>
<g>
</g>
<g>
</g>
<g>
</g>
<g>
</g>
<g>
</g>
<g>
</g>
</svg>
