<?xml version="1.0" encoding="iso-8859-1"?>
<!-- Generator: Adobe Illustrator 16.0.0, SVG Export Plug-In . SVG Version: 6.00 Build 0)  -->
<!DOCTYPE svg PUBLIC "-//W3C//DTD SVG 1.1//EN" "http://www.w3.org/Graphics/SVG/1.1/DTD/svg11.dtd">
<svg version="1.1" id="Capa_1" xmlns="http://www.w3.org/2000/svg" xmlns:xlink="http://www.w3.org/1999/xlink" x="0px" y="0px"
	 width="31.999px" height="31.999px" viewBox="0 0 31.999 31.999" style="enable-background:new 0 0 31.999 31.999;"
	 xml:space="preserve">
<g>
	<g>
		<path fill="#5F4B8B" d="M23.992,10.777l-2.917,0.586l-2.917-0.586c0,0-4.111,8.976-3.944,11.271s12.333,2.146,14.206-1.02
			C29.07,19.195,23.992,10.777,23.992,10.777z"/>
		<polygon fill="#5F4B8B" points="20.609,29.863 21.381,29.863 21.381,24.476 18,24.476 		"/>
		<polygon fill="#5F4B8B" points="22.029,29.863 22.8,29.863 25.412,24.476 22.029,24.476 		"/>
		<path fill="#5F4B8B" d="M14.492,29.529c1-2.443-1.777-2.723-1.777-2.723l0.777-9.645c0.62,0.265,1.11,0.319,1.3,0.089
			c0.292-0.045,0.474-1.107,1.106-2.575c0.699-1.613,1.379-3.031,1.131-3.021c-3.148-1.35-5.843-0.252-7.01,0.97
			c-0.286,0.301-0.345,0.592-0.28,0.864c0.018,0.396,0.386,1.007,0.989,1.654c-4.103,1.113-3.57,11.273-3.57,11.273
			s-2.389,0.259-2.111,1.5c-3.832,2.109,0.557,3.609,2.278,3c0.833,2.056,3.111,0.181,4.352,0.666
			C16.691,33.226,15.769,29.476,14.492,29.529z M13.362,31.771c-1.017,0-1.894-0.521-1.894-1.121c0-0.051,0.012-0.103,0.02-0.151
			c-0.316,0.385-0.853,0.711-1.512,0.858c-1.154,0.26-2.224-0.121-2.387-0.848c-0.022-0.099-0.023-0.197-0.012-0.298
			c-0.361,0.224-0.854,0.371-1.396,0.371c-1.107,0-2.004-0.508-2.004-1.134c0-0.622,0.885-1.126,1.981-1.136
			c-0.258-0.183-0.419-0.41-0.419-0.637c0-0.49,0.739-0.773,1.652-0.773c0.215,0,0.42,0.023,0.609,0.063
			c-0.111-0.14-0.18-0.286-0.18-0.43c0-0.276,0.24-0.467,0.607-0.581c-0.555-1.705-0.389-8.351,3.172-10.736
			c-0.975-0.842-1.609-1.631-1.446-1.831c0.179-0.219,1.251,0.359,2.395,1.292s1.927,1.866,1.748,2.086
			c-0.12,0.146-0.642-0.068-1.314-0.503c-2.348,3.071-0.839,9.136-1.479,10.261c0.563,0.138,0.958,0.438,0.974,0.789
			c0.134-0.035,0.273-0.059,0.421-0.059c0.79,0,1.431,0.526,1.431,1.174c0,0.348-0.082,0.781-0.276,1.112
			c0.644,0.259,1.148,0.73,1.148,1.146C15.202,31.287,14.378,31.771,13.362,31.771z"/>
		<path fill="#5F4B8B" d="M13.88,9.196c2.223,3.167,4.152,0.597,4.152,0.597s1.055,0.626,2.875,0.68c0.004,0,0.008,0.002,0.012,0.002
			c0.016,0,0.026,0,0.043,0c0.061,0.002,0.125,0.001,0.188,0.001c0.063,0,0.127,0.001,0.188-0.001c0.015,0,0.025,0,0.042,0
			c0.004,0,0.008-0.002,0.012-0.002c1.821-0.054,2.877-0.68,2.877-0.68s1.931,2.57,4.15-0.597c-2.609,0.39-2.333-0.5-1.609-1.222
			c0.717-0.719,1.926-10.556-5.66-7.325c-7.584-3.23-6.375,6.606-5.656,7.325C16.213,8.696,16.492,9.586,13.88,9.196z M23.084,4.161
			c0.513,0,0.927,0.356,0.927,0.797c0,0.439-0.414,0.796-0.927,0.796c-0.516,0-0.93-0.356-0.93-0.796S22.568,4.161,23.084,4.161z
			 M19.218,4.161c0.512,0,0.928,0.356,0.928,0.797c0,0.439-0.416,0.796-0.928,0.796c-0.514,0-0.928-0.356-0.928-0.796
			C18.291,4.518,18.705,4.161,19.218,4.161z"/>
	</g>
</g>
<g>
</g>
<g>
</g>
<g>
</g>
<g>
</g>
<g>
</g>
<g>
</g>
<g>
</g>
<g>
</g>
<g>
</g>
<g>
</g>
<g>
</g>
<g>
</g>
<g>
</g>
<g>
</g>
<g>
</g>
</svg>
